<svg xmlns="http://www.w3.org/2000/svg" viewBox="0 0 18 12">
  <rect width="18" height="12" fill="#B22234"/>
  <rect y="0.923" width="18" height="0.923" fill="#FFFFFF"/>
  <rect y="2.769" width="18" height="0.923" fill="#FFFFFF"/>
  <rect y="4.615" width="18" height="0.923" fill="#FFFFFF"/>
  <rect y="6.462" width="18" height="0.923" fill="#FFFFFF"/>
  <rect y="8.308" width="18" height="0.923" fill="#FFFFFF"/>
  <rect y="10.154" width="18" height="0.923" fill="#FFFFFF"/>
  <rect width="7.6" height="5.538" fill="#3C3B6E"/>
  <circle cx="1.2" cy="1.1" r="0.3" fill="#FFFFFF"/>
  <circle cx="2.5" cy="1.1" r="0.3" fill="#FFFFFF"/>
  <circle cx="3.8" cy="1.1" r="0.3" fill="#FFFFFF"/>
  <circle cx="5.1" cy="1.1" r="0.3" fill="#FFFFFF"/>
  <circle cx="6.4" cy="1.1" r="0.3" fill="#FFFFFF"/>
  <circle cx="1.8" cy="2.2" r="0.3" fill="#FFFFFF"/>
  <circle cx="3.1" cy="2.2" r="0.3" fill="#FFFFFF"/>
  <circle cx="4.4" cy="2.2" r="0.3" fill="#FFFFFF"/>
  <circle cx="5.7" cy="2.2" r="0.3" fill="#FFFFFF"/>
  <circle cx="1.2" cy="3.3" r="0.3" fill="#FFFFFF"/>
  <circle cx="2.5" cy="3.3" r="0.3" fill="#FFFFFF"/>
  <circle cx="3.8" cy="3.3" r="0.3" fill="#FFFFFF"/>
  <circle cx="5.1" cy="3.3" r="0.3" fill="#FFFFFF"/>
  <circle cx="6.4" cy="3.3" r="0.3" fill="#FFFFFF"/>
  <circle cx="1.8" cy="4.4" r="0.3" fill="#FFFFFF"/>
  <circle cx="3.1" cy="4.4" r="0.3" fill="#FFFFFF"/>
  <circle cx="4.4" cy="4.4" r="0.3" fill="#FFFFFF"/>
  <circle cx="5.7" cy="4.4" r="0.3" fill="#FFFFFF"/>
</svg>
